<?xml version="1.0" encoding="UTF-8" standalone="no"?>
<!-- Generator: Adobe Illustrator 9.0, SVG Export Plug-In  -->

<svg
   xmlns:dc="http://purl.org/dc/elements/1.1/"
   xmlns:cc="http://creativecommons.org/ns#"
   xmlns:rdf="http://www.w3.org/1999/02/22-rdf-syntax-ns#"
   xmlns:svg="http://www.w3.org/2000/svg"
   xmlns="http://www.w3.org/2000/svg"
   xmlns:sodipodi="http://sodipodi.sourceforge.net/DTD/sodipodi-0.dtd"
   xmlns:inkscape="http://www.inkscape.org/namespaces/inkscape"
   width="48.000000px"
   height="48.000000px"
   viewBox="0 0 48 48"
   xml:space="preserve"
   id="svg2"
   sodipodi:version="0.32"
   inkscape:version="0.91 r13725"
   sodipodi:docname="fleche_haut_24x24.svg"
   version="1.1"
   inkscape:export-filename="c:\users\jmcherel\Desktop\fleche_haut_24x24.png"
   inkscape:export-xdpi="45"
   inkscape:export-ydpi="45"><metadata
     id="metadata17"><rdf:RDF><cc:Work
         rdf:about=""><dc:format>image/svg+xml</dc:format><dc:type
           rdf:resource="http://purl.org/dc/dcmitype/StillImage" /></cc:Work></rdf:RDF></metadata><defs
     id="defs15" /><sodipodi:namedview
     inkscape:window-height="1005"
     inkscape:window-width="1920"
     inkscape:pageshadow="2"
     inkscape:pageopacity="0.0"
     borderopacity="1.0"
     bordercolor="#666666"
     pagecolor="#ffffff"
     id="base"
     showgrid="true"
     inkscape:grid-bbox="true"
     inkscape:grid-points="true"
     inkscape:zoom="7.9375"
     inkscape:cx="17.822285"
     inkscape:cy="7.8526228"
     inkscape:window-x="1911"
     inkscape:window-y="-9"
     inkscape:current-layer="svg2"
     inkscape:window-maximized="1" /><rect
     style="fill:none;fill-opacity:1;fill-rule:evenodd;stroke:none;stroke-width:1px;stroke-linecap:butt;stroke-linejoin:miter;stroke-opacity:1"
     id="rect3313"
     width="48"
     height="48"
     x="-48"
     y="-48"
     transform="scale(-1,-1)" /><path
     inkscape:connector-curvature="0"
     sodipodi:nodetypes="ccccccccccccc"
     id="path4046"
     d="m 7.0252159,26 c -0.3,0 -0.588189,-0.532283 0,-1 L 23.025216,8.9999999 c 1,-1 1,-1 2,0 L 41.025216,25 c 0.598425,0.425197 0.2,1 0,1 l -10,0 0,13 c 0,0 0,1 -1,1 l -12,0 c -1,0 -1,-1 -1,-1 l 0,-13 -10.0000001,0 z"
     style="fill-rule:nonzero;stroke:none;stroke-width:8;stroke-miterlimit:4;stroke-dasharray:none;stroke-opacity:1" /><path
     inkscape:connector-curvature="0"
     style="fill:#325a87;fill-opacity:1;fill-rule:nonzero;stroke:none;stroke-miterlimit:4"
     d="m 7.0252159,26 c -0.3,0 -0.588189,-0.532283 0,-1 L 23.025216,8.9999999 c 1,-1 1,-1 2,0 L 41.025216,25 c 0.598425,0.425197 0.2,1 0,1 l -10,0 0,13 c 0,0 0,1 -1,1 l -12,0 c -1,0 -1,-1 -1,-1 l 0,-13 -10.0000001,0 z"
     id="path9"
     sodipodi:nodetypes="ccccccccccccc" /></svg>