<?xml version="1.0" encoding="UTF-8" standalone="no"?>
<!-- Generator: Adobe Illustrator 9.0, SVG Export Plug-In  -->

<svg
   xmlns:dc="http://purl.org/dc/elements/1.1/"
   xmlns:cc="http://creativecommons.org/ns#"
   xmlns:rdf="http://www.w3.org/1999/02/22-rdf-syntax-ns#"
   xmlns:svg="http://www.w3.org/2000/svg"
   xmlns="http://www.w3.org/2000/svg"
   xmlns:sodipodi="http://sodipodi.sourceforge.net/DTD/sodipodi-0.dtd"
   xmlns:inkscape="http://www.inkscape.org/namespaces/inkscape"
   width="48.000000px"
   height="48.000000px"
   viewBox="0 0 48 48"
   xml:space="preserve"
   id="svg2"
   sodipodi:version="0.32"
   inkscape:version="0.92.3 (2405546, 2018-03-11)"
   sodipodi:docname="redo.svg"
   version="1.1"
   inkscape:export-filename="/home/jm/Bureau/JM/Programmes/opb/img/redo_24x24.png"
   inkscape:export-xdpi="48"
   inkscape:export-ydpi="48"><metadata
     id="metadata17"><rdf:RDF><cc:Work
         rdf:about=""><dc:format>image/svg+xml</dc:format><dc:type
           rdf:resource="http://purl.org/dc/dcmitype/StillImage" /><dc:title></dc:title></cc:Work></rdf:RDF></metadata><defs
     id="defs15"><marker
       inkscape:stockid="Arrow1Lstart"
       orient="auto"
       refY="0.0"
       refX="0.0"
       id="Arrow1Lstart"
       style="overflow:visible"
       inkscape:isstock="true"><path
         id="path1012"
         d="M 0.0,0.0 L 5.0,-5.0 L -12.5,0.0 L 5.0,5.0 L 0.0,0.0 z "
         style="fill-rule:evenodd;stroke:#000000;stroke-width:1pt;stroke-opacity:1;fill:#000000;fill-opacity:1"
         transform="scale(0.8) translate(12.5,0)" /></marker></defs><sodipodi:namedview
     inkscape:window-height="1025"
     inkscape:window-width="1869"
     inkscape:pageshadow="2"
     inkscape:pageopacity="0.0"
     borderopacity="1.0"
     bordercolor="#666666"
     pagecolor="#ffffff"
     id="base"
     showgrid="true"
     inkscape:grid-bbox="true"
     inkscape:grid-points="true"
     inkscape:zoom="6.8212891"
     inkscape:cx="2.5425966"
     inkscape:cy="1.9453554"
     inkscape:window-x="51"
     inkscape:window-y="27"
     inkscape:current-layer="svg2"
     inkscape:window-maximized="1" /><path
     inkscape:connector-curvature="0"
     style="opacity:1;fill:#325a87;fill-opacity:1;fill-rule:evenodd;stroke:none;stroke-miterlimit:4;stroke-opacity:1"
     d="m 23.745228,3.9646251 15.1,14.8999999 c 1,1 1,1 0,2 l -15,15 c -0.92746,0.07254 -1,-1 -1,-1 v -8 h -4 c -1.4,0 -4,-0.2 -4,3 v 4 c 0,3.8 6.17882,5.043779 6.5,6.2 0.5,1.8 -2.5,1.8 -2.5,1.8 h -5 c -5.0999997,0.2 -6.9999997,-5.1 -6.9999997,-10 v -7 c 0,-7.9 3.6999997,-12 9.9999997,-12 h 6 V 4.8646251 c 0,0 0,-1 0.9,-0.9 z"
     id="path9"
     sodipodi:nodetypes="cccccccccscccccccc" /></svg>